<svg width="28" height="34" viewBox="0 0 28 34" fill="none" xmlns="http://www.w3.org/2000/svg">
<g filter="url(#filter0_d_395_51)">
<path d="M10.563 3.49688C10.8874 2.63171 12.1112 2.63171 12.4357 3.49688L21.0381 26.4368C21.3655 27.3099 20.4253 28.1164 19.6123 27.6599L11.9889 23.3801C11.6848 23.2094 11.3138 23.2094 11.0098 23.3801L3.3864 27.6599C2.57332 28.1164 1.63313 27.3099 1.96053 26.4368L10.563 3.49688Z" fill="white"/>
<path fill-rule="evenodd" clip-rule="evenodd" d="M9.73607 3.14578C10.3849 1.41544 12.8325 1.41543 13.4814 3.14577L22.0839 26.0857C22.7387 27.8318 20.8583 29.4448 19.2321 28.5319L11.6087 24.2521L3.98533 28.5319C2.35917 29.4448 0.478795 27.8318 1.13361 26.0857L9.73607 3.14578ZM20.2112 26.7879L11.6087 3.84802L3.00626 26.7879L10.6297 22.5081C11.2377 22.1667 11.9797 22.1667 12.5878 22.5081L20.2112 26.7879Z" fill="#6DCFF6"/>
</g>
<defs>
<filter id="filter0_d_395_51" x="0" y="0.848022" width="27.2168" height="32.9477" filterUnits="userSpaceOnUse" color-interpolation-filters="sRGB">
<feFlood flood-opacity="0" result="BackgroundImageFix"/>
<feColorMatrix in="SourceAlpha" type="matrix" values="0 0 0 0 0 0 0 0 0 0 0 0 0 0 0 0 0 0 127 0" result="hardAlpha"/>
<feOffset dx="2" dy="2"/>
<feGaussianBlur stdDeviation="1.5"/>
<feComposite in2="hardAlpha" operator="out"/>
<feColorMatrix type="matrix" values="0 0 0 0 0 0 0 0 0 0 0 0 0 0 0 0 0 0 0.25 0"/>
<feBlend mode="normal" in2="BackgroundImageFix" result="effect1_dropShadow_395_51"/>
<feBlend mode="normal" in="SourceGraphic" in2="effect1_dropShadow_395_51" result="shape"/>
</filter>
</defs>
</svg>
