<svg width="37" height="59" viewBox="0 0 37 59" fill="none" xmlns="http://www.w3.org/2000/svg">
<g filter="url(#filter0_d_361_188)">
<path d="M27.3766 1L5.3961 1.02367C2.97825 1.02367 1 3.13042 1 5.73427V48.3427C1 50.9465 2.97825 53.0769 5.3961 53.0769H27.3766C29.7945 53.0769 31.7507 50.9465 31.7507 48.3427V5.73427C31.7507 3.13042 29.7945 1 27.3766 1Z" fill="white"/>
<path fill-rule="evenodd" clip-rule="evenodd" d="M27.3766 1L5.3961 1.02367C2.97825 1.02367 1 3.13042 1 5.73427V48.3427C1 50.9465 2.97825 53.0769 5.3961 53.0769H27.3766C29.7945 53.0769 31.7507 50.9465 31.7507 48.3427V5.73427C31.7507 3.13042 29.7945 1 27.3766 1ZM6 22.0564C5.44771 22.0564 5 21.6087 5 21.0564V18.2564C5 17.7041 5.44772 17.2564 6 17.2564H26.6667C27.219 17.2564 27.6667 17.7041 27.6667 18.2564V21.0564C27.6667 21.6087 27.219 22.0564 26.6667 22.0564H6ZM5 43.0564C5 43.6087 5.44771 44.0564 6 44.0564H26.6667C27.219 44.0564 27.6667 43.6087 27.6667 43.0564V40.2564C27.6667 39.7041 27.219 39.2564 26.6667 39.2564H6C5.44772 39.2564 5 39.7041 5 40.2564V43.0564ZM2.64982 29.5376C2.29094 29.5376 2 29.2467 2 28.8878V22.3895C2 22.0307 2.29094 21.7397 2.64982 21.7397C3.00871 21.7397 3.29965 22.0307 3.29965 22.3895V28.8878C3.29965 29.2467 3.00871 29.5376 2.64982 29.5376ZM29.293 28.8878C29.293 29.2467 29.5839 29.5376 29.9428 29.5376C30.3017 29.5376 30.5926 29.2467 30.5926 28.8878V22.3895C30.5926 22.0307 30.3017 21.7397 29.9428 21.7397C29.5839 21.7397 29.293 22.0307 29.293 22.3895V28.8878ZM2.64982 39.9347C2.29094 39.9347 2 39.6438 2 39.2849V32.7866C2 32.4278 2.29094 32.1368 2.64982 32.1368C3.00871 32.1368 3.29965 32.4278 3.29965 32.7866V39.2849C3.29965 39.6438 3.00871 39.9347 2.64982 39.9347ZM29.293 39.2848C29.293 39.6437 29.5839 39.9346 29.9428 39.9346C30.3017 39.9346 30.5926 39.6437 30.5926 39.2848V32.7866C30.5926 32.4277 30.3017 32.1368 29.9428 32.1368C29.5839 32.1368 29.293 32.4277 29.293 32.7866V39.2848Z" fill="#0068A6"/>
</g>
<defs>
<filter id="filter0_d_361_188" x="0" y="0" width="36.751" height="58.0769" filterUnits="userSpaceOnUse" color-interpolation-filters="sRGB">
<feFlood flood-opacity="0" result="BackgroundImageFix"/>
<feColorMatrix in="SourceAlpha" type="matrix" values="0 0 0 0 0 0 0 0 0 0 0 0 0 0 0 0 0 0 127 0" result="hardAlpha"/>
<feOffset dx="2" dy="2"/>
<feGaussianBlur stdDeviation="1.5"/>
<feComposite in2="hardAlpha" operator="out"/>
<feColorMatrix type="matrix" values="0 0 0 0 0 0 0 0 0 0 0 0 0 0 0 0 0 0 0.25 0"/>
<feBlend mode="normal" in2="BackgroundImageFix" result="effect1_dropShadow_361_188"/>
<feBlend mode="normal" in="SourceGraphic" in2="effect1_dropShadow_361_188" result="shape"/>
</filter>
</defs>
</svg>
